<?xml version="1.0" standalone="no"?><!DOCTYPE svg PUBLIC "-//W3C//DTD SVG 1.1//EN" "http://www.w3.org/Graphics/SVG/1.1/DTD/svg11.dtd"><svg class="icon" width="200px" height="200.00px" viewBox="0 0 1024 1024" version="1.1" xmlns="http://www.w3.org/2000/svg"><path fill="#333333" d="M512 676.383c136.08 0 246.784-110.715 246.784-246.795V250.44C758.784 114.36 648.079 3.656 512 3.656S265.216 114.36 265.216 250.44v179.159c0 136.069 110.705 246.784 246.784 246.784zM306.176 250.44c0-113.49 92.334-205.824 205.824-205.824S717.824 136.95 717.824 250.44v179.159c0 113.5-92.334 205.834-205.824 205.834s-205.824-92.334-205.824-205.834v-179.16zM871.178 431.38V269.67h-40.96v161.71C830.218 606.853 687.473 749.6 512 749.6c-175.462 0-318.218-142.746-318.218-318.219V269.67h-40.96v161.71c0 191.171 150.139 347.904 338.698 358.554V967.65H219.34v40.96h585.32v-40.96H532.48V789.934c188.55-10.65 338.698-167.383 338.698-358.554z" /></svg>