<?xml version="1.0" standalone="no"?><!DOCTYPE svg PUBLIC "-//W3C//DTD SVG 1.1//EN" "http://www.w3.org/Graphics/SVG/1.1/DTD/svg11.dtd"><svg t="1557403799794" class="icon" style="" viewBox="0 0 1024 1024" version="1.1" xmlns="http://www.w3.org/2000/svg" p-id="5261" xmlns:xlink="http://www.w3.org/1999/xlink" width="200" height="200"><defs><style type="text/css"></style></defs><path d="M511.697 819.156c-87.206 0-155.724-68.517-155.724-155.721 0-87.206 68.518-155.724 155.724-155.724 87.204 0 155.722 68.518 155.722 155.724 0 87.204-68.518 155.721-155.722 155.721z m0-249.156c-52.947 0-93.435 40.489-93.435 93.435s40.489 93.433 93.435 93.433 93.434-40.487 93.434-93.433S564.642 570 511.697 570z" p-id="5262"></path><path d="M868.974 263.372l44.044 44.045L622.324 598.11l-44.043-44.046 290.693-290.693zM60.1 775.554c-9.343-37.373-15.572-74.747-15.572-112.12 0-258.5 208.668-467.167 467.17-467.167 84.089 0 168.18 21.8 239.811 65.402l-31.144 52.946c-62.29-37.373-133.921-56.06-208.668-56.06-224.242 0-404.88 180.639-404.88 404.88 0 31.144 3.114 65.402 12.458 99.663L60.1 775.554z m903.192 0l-59.176-15.572c9.344-31.145 12.459-65.403 12.459-96.548 0-71.632-18.688-140.152-52.946-202.44l52.946-31.145c40.487 71.632 62.289 152.608 62.289 233.584-0.001 37.374-6.23 74.748-15.572 112.121z" p-id="5263"></path></svg>