<?xml version="1.0" standalone="no"?><!DOCTYPE svg PUBLIC "-//W3C//DTD SVG 1.1//EN" "http://www.w3.org/Graphics/SVG/1.1/DTD/svg11.dtd"><svg t="1542622515512" class="icon" style="" viewBox="0 0 1275 1024" version="1.1" xmlns="http://www.w3.org/2000/svg" p-id="5301" xmlns:xlink="http://www.w3.org/1999/xlink" width="249.0234375" height="200"><defs><style type="text/css"></style></defs><path d="M159.138765 955.818667h974.486124c17.785679 0 31.826173 15.483259 31.826173 34.063802 0 18.577383-14.040494 34.060642-31.826173 34.060642H159.138765C71.142716 1023.943111 0 946.531556 0 851.572938V1.079309h1114.902123c87.994469 0 159.138765 77.411556 159.138766 172.368592V849.509136c0 18.577383-14.045235 34.063802-31.829333 34.063802-17.785679 0-31.826173-15.483259-31.826173-34.062222V173.452642c0-56.77037-43.061728-103.216988-95.48326-103.216988H63.655506v782.367605c0 56.77037 42.124642 103.215407 95.483259 103.215408z m542.941235-208.493037c24.337383 0 43.061728 21.674667 43.061728 47.480098 0 26.834173-19.658272 47.478519-43.061728 47.478519-24.338963 0-43.061728-21.674667-43.061728-47.478519 0-25.805432 18.722765-47.480099 43.061728-47.480098z m-175.987358 48.510419c0-26.221037 19.279012-47.480099 43.061728-47.480098 23.779556 0 43.060148 21.259062 43.060149 47.480098 0 26.222617-19.279012 47.478519-43.061729 47.478519s-43.061728-21.255901-43.061728-47.478519z m-131.991704 0c0-26.221037 19.279012-47.480099 43.061729-47.480098 23.781136 0 43.060148 21.259062 43.060148 47.480098 0 26.222617-19.279012 47.478519-43.061729 47.478519s-43.061728-21.255901-43.061728-47.478519z m442.777284-48.510419c24.340543 0 43.061728 21.674667 43.061729 47.480098 0 26.834173-19.658272 47.478519-43.061729 47.478519-24.338963 0-43.061728-21.674667-43.061728-47.478519-0.935506-25.805432 18.722765-47.480099 43.061728-47.480098zM247.340247 328.312099h80.655802c16.687407 0 30.087901 4.045432 39.948642 12.136296 9.607901 8.090864 14.411852 19.215802 14.411852 33.374815 0 10.11358-2.781235 18.962963-8.090864 26.295309-5.562469 6.573827-12.894815 11.377778-21.997037 14.411851 11.883457 2.022716 20.985679 7.079506 27.559506 14.664692 6.573827 7.585185 10.11358 17.193086 10.11358 29.329382 0 17.698765-6.320988 30.84642-18.710123 39.442963-10.619259 7.079506-25.283951 10.872099-43.741235 10.872099h-80.150123V328.312099z m20.732839 17.445926v61.44h54.866173c12.641975 0 22.249877-2.781235 28.823704-7.838025 6.573827-5.30963 10.11358-13.147654 10.11358-23.514074 0-10.11358-3.286914-17.698765-9.860741-22.755556-6.573827-5.05679-16.181728-7.332346-28.823703-7.332345h-55.119013z m0 78.633086v67.002469h57.647408c12.641975 0 22.502716-2.528395 30.087901-7.079506 8.849383-5.562469 13.400494-14.411852 13.400494-26.042469 0-11.630617-4.045432-20.22716-11.630617-25.78963-7.332346-5.562469-17.951605-8.090864-31.857778-8.090864h-57.647408z m204.8-49.809383c18.710123 0 32.363457 4.803951 41.465679 14.664692 7.585185 8.596543 11.630617 20.48 11.630618 35.65037V508.839506h-18.962963v-21.997037c-5.05679 7.079506-11.883457 12.894815-19.974321 17.445926-9.607901 5.30963-20.48 8.090864-32.616297 8.090864-13.147654 0-23.514074-3.286914-31.352098-9.86074-8.090864-6.826667-12.136296-15.676049-12.136297-26.295309 0-14.917531 5.815309-26.042469 17.951605-33.627654 10.619259-7.079506 25.78963-10.872099 45.511111-11.124939l31.352099-0.505679v-6.826666c0-21.997037-11.377778-32.869136-34.133333-32.869136-9.607901 0-17.445926 1.769877-23.514074 5.815308-6.826667 4.045432-11.124938 10.36642-13.147655 18.710124l-19.97432-1.517037c2.781235-13.653333 9.607901-24.019753 20.22716-30.59358 9.607901-6.068148 21.997037-9.102222 37.673086-9.102223z m32.869136 71.553581l-30.087901 0.505679c-29.329383 0.505679-43.994074 10.11358-43.994074 29.076543 0 6.068148 2.275556 10.872099 7.332346 14.917531 5.05679 3.792593 11.630617 5.815309 19.721481 5.815308 12.389136 0 23.261235-4.045432 32.869136-12.136296 9.355062-7.838025 14.159012-16.940247 14.159012-27.053827v-11.124938z m112.76642-71.553581c32.363457 0 48.798025 17.951605 48.798025 53.854815V508.839506h-20.227161v-78.885926c0-25.53679-11.630617-38.178765-34.386173-38.178765-9.102222 0-16.940247 3.286914-23.514074 9.860741-7.079506 7.079506-10.872099 16.434568-11.630617 28.318024V508.839506h-20.227161v-130.718025h20.227161v19.215803c4.551111-7.332346 10.36642-12.894815 17.445926-16.687407 7.079506-4.045432 14.917531-6.068148 23.514074-6.068149z m141.337284 0c32.363457 0 48.798025 17.951605 48.798025 53.854815V508.839506h-20.227161v-78.885926c0-25.53679-11.630617-38.178765-34.386173-38.178765-9.102222 0-16.940247 3.286914-23.514074 9.860741-7.079506 7.079506-10.872099 16.434568-11.630617 28.318024V508.839506h-20.227161v-130.718025h20.227161v19.215803c4.551111-7.332346 10.36642-12.894815 17.445926-16.687407 7.079506-4.045432 14.917531-6.068148 23.514074-6.068149z m134.004938 0c20.985679 0 36.914568 7.079506 47.533827 21.238519 9.607901 12.641975 14.664691 30.59358 15.170371 53.349136h-103.158519c1.011358 14.664691 4.803951 26.042469 11.883457 34.133333 7.079506 8.090864 16.940247 12.136296 29.329383 12.136296 10.619259 0 19.468642-2.781235 26.042469-8.090864 5.562469-4.551111 9.860741-11.377778 13.147654-20.48h20.227161c-3.034074 12.641975-8.849383 22.755556-17.698766 30.84642-10.872099 9.607901-24.778272 14.664691-41.718518 14.664691-18.710123 0-33.880494-6.320988-45.005432-18.457284-11.630617-12.641975-17.193086-29.329383-17.193087-50.567901 0-19.215802 5.30963-35.397531 16.434568-48.292346 11.124938-13.653333 26.042469-20.48 45.005432-20.48z m0.505679 16.940247c-11.630617 0-20.985679 3.792593-28.065185 11.377778-7.079506 7.585185-11.124938 17.698765-12.389136 30.59358h81.667161c-2.528395-28.065185-16.434568-41.971358-41.21284-41.971358z m143.36-16.940247c7.079506 0 13.147654 1.011358 17.951605 3.034074v20.227161c-6.573827-2.022716-13.147654-2.781235-19.468642-2.781235-10.11358 0-18.710123 4.298272-25.53679 13.400494-7.079506 8.596543-10.36642 18.962963-10.36642 31.099259V508.839506h-19.974321v-130.718025H1000.296296v22.755556c3.539753-7.585185 8.090864-13.653333 13.653334-17.951605 6.826667-5.562469 14.664691-8.343704 23.766913-8.343704z" p-id="5302"></path></svg>