<?xml version="1.0" standalone="no"?><!DOCTYPE svg PUBLIC "-//W3C//DTD SVG 1.1//EN" "http://www.w3.org/Graphics/SVG/1.1/DTD/svg11.dtd"><svg class="icon" width="200px" height="200.00px" viewBox="0 0 1024 1024" version="1.1" xmlns="http://www.w3.org/2000/svg"><path fill="#333333" d="M533.931 739.588c-12.692 12.692-33.187 12.774-45.778 0.185L74.383 326c-12.592-12.591-12.509-33.087 0.183-45.779s33.188-12.774 45.779-0.184L534.117 693.81c12.588 12.59 12.507 33.086-0.186 45.778z m413.92-458.325c12.693 12.692 12.775 33.188 0.185 45.778L534.264 740.812c-12.59 12.591-33.086 12.508-45.779-0.184-12.692-12.692-12.773-33.188-0.184-45.779l413.771-413.77c12.592-12.59 33.088-12.508 45.78 0.184z" /></svg>