<?xml version="1.0" standalone="no"?><!DOCTYPE svg PUBLIC "-//W3C//DTD SVG 1.1//EN" "http://www.w3.org/Graphics/SVG/1.1/DTD/svg11.dtd"><svg class="icon" width="200px" height="200.00px" viewBox="0 0 1024 1024" version="1.1" xmlns="http://www.w3.org/2000/svg"><path fill="#333333" d="M188.8 835.2h644.8V188.8H188.8v646.4z m32-614.4h580.8v580.8H220.8V220.8zM278.4 420.8H744V278.4H278.4v142.4z m16-128H728v110.4H294.4V292.8z m-19.2 446.4H496V472H275.2v267.2z m16-251.2H480v233.6H291.2V488z m264-16H744v16H555.2z m0 62.4H744v16H555.2z m0 62.4H744v16H555.2z m0 126.4H744v16H555.2z m0-62.4H744v16H555.2z" /></svg>