<?xml version="1.0" standalone="no"?><!DOCTYPE svg PUBLIC "-//W3C//DTD SVG 1.1//EN" "http://www.w3.org/Graphics/SVG/1.1/DTD/svg11.dtd"><svg class="icon" width="200px" height="200.00px" viewBox="0 0 1024 1024" version="1.1" xmlns="http://www.w3.org/2000/svg"><path fill="#333333" d="M857.035 164.405c-92.3-92.299-215.018-143.13-345.547-143.13-130.531 0-253.247 50.831-345.547 143.13S22.811 379.421 22.811 509.952c0 130.53 50.831 253.247 143.13 345.547s215.016 143.13 345.547 143.13c130.53 0 253.247-50.831 345.547-143.13s143.13-215.018 143.13-345.547c0-130.531-50.831-253.247-143.13-345.547zM511.488 953.717c-244.693 0-443.765-199.072-443.765-443.765S266.795 66.187 511.488 66.187 955.253 265.26 955.253 509.952 756.18 953.717 511.488 953.717zM500.642 243.54h-44.913v322.17H777.9v-44.912H500.642z" /></svg>