<?xml version="1.0" standalone="no"?><!DOCTYPE svg PUBLIC "-//W3C//DTD SVG 1.1//EN" "http://www.w3.org/Graphics/SVG/1.1/DTD/svg11.dtd"><svg class="icon" width="200px" height="200.00px" viewBox="0 0 1024 1024" version="1.1" xmlns="http://www.w3.org/2000/svg"><path fill="#333333" d="M977.455 279.273H47.11c-20.311 0-46.264-26.517-46.264-46.264-0.564-20.875 25.953-46.827 46.264-46.827H233.29V93.09C232.727 32.723 265.451 0 325.818 0h369.543c59.804 0 95.348 32.723 95.348 93.09v93.092H976.89c20.311 0 46.264 26.517 46.264 46.263 0.564 20.31-25.389 46.828-45.7 46.828zM698.182 139.918c0-20.31-26.517-46.263-46.264-46.263H372.646c-20.311 0-46.264 26.517-46.264 46.263v46.264h372.364l-0.564-46.264zM465.737 372.364v465.454h-93.091V372.364h93.09z m186.181 0v465.454h-93.09V372.364h93.09z m-465.454-46.828c20.31 0 46.827 26.517 46.827 46.263v511.718c0 20.311 26.517 46.264 46.264 46.264h465.454c20.311 0 46.264-26.517 46.264-46.264V372.364c0-20.311 26.517-46.264 46.263-46.264 20.31 0 46.263 26.517 46.263 46.264v558.545c0 60.368-32.722 93.091-93.09 93.091H232.163c-60.368 0-93.09-32.723-93.09-93.09V372.363c0.563-20.311 27.08-46.828 47.39-46.828z m0 0" /></svg>