<?xml version="1.0" standalone="no"?><!DOCTYPE svg PUBLIC "-//W3C//DTD SVG 1.1//EN" "http://www.w3.org/Graphics/SVG/1.1/DTD/svg11.dtd"><svg class="icon" width="200px" height="200.00px" viewBox="0 0 1024 1024" version="1.1" xmlns="http://www.w3.org/2000/svg"><path fill="#333333" d="M511.7 485.242a25.524 25.524 0 0 1-16.649-6.16L112.094 150.818c-10.727-9.195-11.97-25.345-2.774-36.073 9.195-10.726 25.345-11.97 36.072-2.773L511.624 425.9 874.47 112.046c10.689-9.244 26.843-8.074 36.086 2.612s8.074 26.842-2.612 36.085L528.436 479.008a25.532 25.532 0 0 1-16.736 6.234zM511.7 926.777a25.524 25.524 0 0 1-16.649-6.16L112.094 592.353c-10.727-9.195-11.97-25.345-2.774-36.072 9.195-10.727 25.345-11.971 36.072-2.774l366.232 313.928L874.47 553.581c10.689-9.244 26.843-8.074 36.086 2.613s8.074 26.84-2.612 36.084L528.436 920.543a25.532 25.532 0 0 1-16.736 6.234z" /></svg>