<?xml version="1.0" standalone="no"?><!DOCTYPE svg PUBLIC "-//W3C//DTD SVG 1.1//EN" "http://www.w3.org/Graphics/SVG/1.1/DTD/svg11.dtd"><svg class="icon" width="200px" height="200.00px" viewBox="0 0 1024 1024" version="1.1" xmlns="http://www.w3.org/2000/svg"><path fill="#333333" d="M997.376 469.64a22.002 22.002 0 0 0-8.441-14.759L524.892 96.546a20.716 20.716 0 0 0-25.259-0.037L32.461 454.84a21.968 21.968 0 0 0-3.973 31.103 22.665 22.665 0 0 0 31.515 3.922l65.649-50.357v423.724c0 38.188 30.214 69.29 67.358 69.29h644.806c37.148 0 67.359-31.091 67.359-69.29V446.508l56.091 43.305a22.709 22.709 0 0 0 31.54-3.802 22.054 22.054 0 0 0 4.57-16.37z m-410.31 418.53h-150.16V631.378a21.886 21.886 0 0 1 21.993-21.699h106.53a21.524 21.524 0 0 1 21.637 21.354V888.17z" /></svg>