<?xml version="1.0" standalone="no"?><!DOCTYPE svg PUBLIC "-//W3C//DTD SVG 1.1//EN" "http://www.w3.org/Graphics/SVG/1.1/DTD/svg11.dtd"><svg class="icon" width="200px" height="200.00px" viewBox="0 0 1024 1024" version="1.1" xmlns="http://www.w3.org/2000/svg"><path fill="#333333" d="M595.452 562.825l-120.49-119.851 209.983-89.003-89.493 208.854zM355.11 681.865l89.515-208.875 120.512 119.85-210.027 89.025z m322.56-371.158L421.158 419.443 311.825 674.526c-8.853 20.63-4.736 33.984 0.235 41.557 5.93 9.003 16.085 14.144 27.861 14.144 6.89 0 14.464-1.728 22.485-5.12l256.512-108.714L728.23 361.267c8.854-20.63 4.758-33.984-0.234-41.536-9.408-14.272-28.608-18.218-50.326-9.024zM533.333 937.64v-64.165c0-11.78-9.536-21.303-21.333-21.303-11.797 0-21.333 9.522-21.333 21.303v64.164C272 926.753 96.576 751.154 86.336 532.63h62.997c11.798 0 21.334-9.522 21.334-21.302s-9.536-21.303-21.334-21.303H86.485C98.005 272.735 272.896 98.521 490.667 87.677v61.502c0 11.78 9.536 21.303 21.333 21.303 11.797 0 21.333-9.523 21.333-21.303V87.677c217.771 10.844 392.662 185.058 404.182 402.347h-62.848c-11.798 0-21.334 9.522-21.334 21.303 0 11.78 9.536 21.303 21.334 21.303h62.997C927.424 751.154 752 926.753 533.334 937.64m448-426.313c0-0.064-0.043-0.128-0.043-0.192-0.811-255.57-206.507-462.868-461.675-466.937-2.39-0.916-4.907-1.533-7.616-1.533-2.71 0-5.227 0.617-7.616 1.533C249.216 48.268 43.52 255.565 42.709 511.135c0 0.064-0.042 0.128-0.042 0.192s0.021 0.106 0.021 0.149c0 0.405-0.021 0.788-0.021 1.193C42.667 771.499 252.8 981.33 512 981.33c259.2 0 469.333-209.833 469.333-468.662 0-0.405-0.021-0.788-0.021-1.193 0-0.043 0.021-0.085 0.021-0.15" /></svg>