<?xml version="1.0" standalone="no"?><!DOCTYPE svg PUBLIC "-//W3C//DTD SVG 1.1//EN" "http://www.w3.org/Graphics/SVG/1.1/DTD/svg11.dtd"><svg t="1542622674659" class="icon" style="" viewBox="0 0 1024 1024" version="1.1" xmlns="http://www.w3.org/2000/svg" p-id="7812" xmlns:xlink="http://www.w3.org/1999/xlink" width="200" height="200"><defs><style type="text/css"></style></defs><path d="M731.136 34.56c-85.632 0-165.12 40.96-219.136 112.768C457.984 75.52 378.496 34.56 292.864 34.56 150.912 34.56 0 150.4 0 365.184c0 244.992 296.32 479.36 472.704 597.12l39.296 28.032 37.376-26.752C726.656 845.312 1024 610.432 1024 365.184 1024 150.4 873.088 34.56 731.136 34.56zM292.864 113.664c63.872 0 120.064 30.208 158.336 84.992l5.632 8.192h-0.128l55.296 79.616 60.8-87.68c40.576-55.68 95.232-85.12 158.336-85.12 106.24 0 213.888 86.4 213.888 251.52 0 24.704-4.864 50.944-13.44 77.952H750.08l-114.688-199.168-193.536 300.928-146.048-208.64-79.488 112.384H93.824c-9.6-28.928-14.848-56.832-14.848-83.456 0-165.12 107.648-251.52 213.888-251.52zM512 892.928c-180.608-121.6-310.272-246.144-378.368-359.936H259.84l35.456-50.048 149.504 213.504 186.496-290.176 69.76 121.216h191.872c-67.712 116.48-199.68 244.48-380.928 365.44z" p-id="7813"></path></svg>