<?xml version="1.0" standalone="no"?><!DOCTYPE svg PUBLIC "-//W3C//DTD SVG 1.1//EN" "http://www.w3.org/Graphics/SVG/1.1/DTD/svg11.dtd"><svg t="1542624322216" class="icon" style="" viewBox="0 0 1024 1024" version="1.1" xmlns="http://www.w3.org/2000/svg" p-id="570" xmlns:xlink="http://www.w3.org/1999/xlink" width="200" height="200"><defs><style type="text/css"></style></defs><path d="M512 20.48A491.52 491.52 0 0 0 20.48 512a489.472 489.472 0 0 0 102.4 300.3392v7.5776l4.7104-1.536A490.752 490.752 0 0 0 512 1003.52a490.7008 490.7008 0 0 0 388.608-190.5152l0.512 0.1536v-0.8192a489.3696 489.3696 0 0 0 102.4-300.3392A491.52 491.52 0 0 0 512 20.48z m450.0992 471.04h-245.7088a926.208 926.208 0 0 0-20.8896-174.6432 1244.1088 1244.1088 0 0 0 199.7824-41.7792A447.9488 447.9488 0 0 1 962.0992 491.52z m-613.6832 0a891.904 891.904 0 0 1 21.2992-172.1856 1385.8816 1385.8816 0 0 0 285.0304 2.048 889.856 889.856 0 0 1 20.8384 170.1376h-327.168z m327.168 40.96a901.0176 901.0176 0 0 1-25.4464 190.1568 1394.432 1394.432 0 0 0-275.7632 1.9968 900.608 900.608 0 0 1-25.9584-192.1536h327.168z m195.7888-292.3008a1221.7344 1221.7344 0 0 1-185.344 36.7616 1131.4176 1131.4176 0 0 0-75.6224-204.7488 451.072 451.072 0 0 1 260.9664 167.9872zM512 61.44c17.664 0 35.1232 1.024 52.2752 3.0208 35.2768 74.4448 62.208 146.2784 80.7424 216.832a1395.712 1395.712 0 0 1-265.5744-1.9968c18.5344-69.888 45.2608-141.1072 80.2816-214.8352A452.096 452.096 0 0 1 512 61.44z m-98.4064 10.8032a1132.6976 1132.6976 0 0 0-74.9568 202.1376 1199.3088 1199.3088 0 0 1-182.2208-39.1168 450.56 450.56 0 0 1 257.1776-163.0208zM131.9424 269.9264c61.4912 19.456 127.5904 34.5088 197.12 44.3392A925.9008 925.9008 0 0 0 307.6096 491.52H61.9008a448.1536 448.1536 0 0 1 70.0416-221.5936z m11.3664 501.0944a448.2048 448.2048 0 0 1-81.408-238.5408h245.6576c1.4848 66.9184 10.3936 132.5568 25.9072 197.12-66.816 9.2672-130.56 23.296-190.1568 41.4208z m26.624 34.2528a1209.6512 1209.6512 0 0 1 173.9776-35.8912c17.5104 61.696 40.96 122.4704 69.632 182.3744a450.304 450.304 0 0 1-243.6096-146.4832z m289.792 154.2656a1273.9584 1273.9584 0 0 1-74.752-194.9696 1380.5056 1380.5056 0 0 1 254.6176-1.8432 1273.9584 1273.9584 0 0 1-75.264 196.8128 453.6832 453.6832 0 0 1-104.6016 0z m150.6816-7.7824a1143.9616 1143.9616 0 0 0 70.3488-184.8832c62.0544 7.2704 121.4464 18.6368 177.2544 33.6896a450.2528 450.2528 0 0 1-247.6032 151.1936z m273.7152-185.6512a1251.2768 1251.2768 0 0 0-193.024-39.0144c15.1552-63.744 23.8592-128.5632 25.2928-194.56h245.6576a448 448 0 0 1-77.9264 233.5744z" p-id="571"></path></svg>