<?xml version="1.0" standalone="no"?><!DOCTYPE svg PUBLIC "-//W3C//DTD SVG 1.1//EN" "http://www.w3.org/Graphics/SVG/1.1/DTD/svg11.dtd"><svg t="1557455646005" class="icon" style="" viewBox="0 0 1344 1024" version="1.1" xmlns="http://www.w3.org/2000/svg" p-id="8487" xmlns:xlink="http://www.w3.org/1999/xlink" width="262.5" height="200"><defs><style type="text/css"></style></defs><path d="M1248 0c-52.928 0-96 43.072-96 96 0 28.416 12.672 53.728 32.352 71.328l-281.6 448.992A95.104 95.104 0 0 0 864 608c-27.776 0-52.608 12.032-70.176 30.944l-290.336-183.84c5.376-11.968 8.512-25.152 8.512-39.104 0-52.928-43.072-96-96-96s-96 43.072-96 96c0 28.928 13.12 54.592 33.408 72.192L132.768 839.392A95.104 95.104 0 0 0 96 832c-52.928 0-96 43.072-96 96s43.072 96 96 96 96-43.072 96-96c0-28.416-12.64-53.696-32.32-71.296l220.928-351.68c10.976 4.416 22.88 6.976 35.392 6.976 27.488 0 52.128-11.744 69.632-30.304l290.496 183.936A95.392 95.392 0 0 0 768 704c0 52.928 43.072 96 96 96s96-43.072 96-96c0-27.616-11.872-52.352-30.624-69.888l281.92-449.472c11.328 4.704 23.712 7.36 36.704 7.36 52.928 0 96-43.072 96-96s-43.072-96-96-96zM160 928c0 35.296-28.704 64-64 64s-64-28.704-64-64 28.704-64 64-64 64 28.704 64 64z m256-448c-35.296 0-64-28.704-64-64s28.704-64 64-64 64 28.704 64 64-28.704 64-64 64z m448 288c-35.296 0-64-28.704-64-64s28.704-64 64-64 64 28.704 64 64-28.704 64-64 64zM1248 160c-35.296 0-64-28.704-64-64s28.704-64 64-64 64 28.704 64 64-28.704 64-64 64z" fill="#828282" p-id="8488"></path></svg>