<?xml version="1.0" standalone="no"?><!DOCTYPE svg PUBLIC "-//W3C//DTD SVG 1.1//EN" "http://www.w3.org/Graphics/SVG/1.1/DTD/svg11.dtd"><svg t="1542623079131" class="icon" style="" viewBox="0 0 1024 1024" version="1.1" xmlns="http://www.w3.org/2000/svg" p-id="13451" xmlns:xlink="http://www.w3.org/1999/xlink" width="200" height="200"><defs><style type="text/css"></style></defs><path d="M221.866667 362.666667h110.933333c4.266667 0 8.533333-4.266667 8.533333-8.533334V243.2c0-4.266667-4.266667-8.533333-8.533333-8.533333H221.866667c-4.266667 0-8.533333 4.266667-8.533334 8.533333v110.933333c0 4.266667 4.266667 8.533333 8.533334 8.533334zM221.866667 576h110.933333c4.266667 0 8.533333-4.266667 8.533333-8.533333v-110.933334c0-4.266667-4.266667-8.533333-8.533333-8.533333H221.866667c-4.266667 0-8.533333 4.266667-8.533334 8.533333v110.933334c0 4.266667 4.266667 8.533333 8.533334 8.533333zM221.866667 789.333333h110.933333c4.266667 0 8.533333-4.266667 8.533333-8.533333v-110.933333c0-4.266667-4.266667-8.533333-8.533333-8.533334H221.866667c-4.266667 0-8.533333 4.266667-8.533334 8.533334v110.933333c0 4.266667 4.266667 8.533333 8.533334 8.533333zM426.666667 243.2v110.933333c0 4.266667 4.266667 8.533333 8.533333 8.533334h366.933333c4.266667 0 8.533333-4.266667 8.533334-8.533334V243.2c0-4.266667-4.266667-8.533333-8.533334-8.533333h-366.933333c-4.266667 0-8.533333 4.266667-8.533333 8.533333zM435.2 576h366.933333c4.266667 0 8.533333-4.266667 8.533334-8.533333v-110.933334c0-4.266667-4.266667-8.533333-8.533334-8.533333h-366.933333c-4.266667 0-8.533333 4.266667-8.533333 8.533333v110.933334c0 4.266667 4.266667 8.533333 8.533333 8.533333zM435.2 789.333333h366.933333c4.266667 0 8.533333-4.266667 8.533334-8.533333v-110.933333c0-4.266667-4.266667-8.533333-8.533334-8.533334h-366.933333c-4.266667 0-8.533333 4.266667-8.533333 8.533334v110.933333c0 4.266667 4.266667 8.533333 8.533333 8.533333z" p-id="13452"></path></svg>