<?xml version="1.0" standalone="no"?><!DOCTYPE svg PUBLIC "-//W3C//DTD SVG 1.1//EN" "http://www.w3.org/Graphics/SVG/1.1/DTD/svg11.dtd"><svg t="1542623583003" class="icon" style="" viewBox="0 0 1025 1024" version="1.1" xmlns="http://www.w3.org/2000/svg" p-id="15775" xmlns:xlink="http://www.w3.org/1999/xlink" width="200.1953125" height="200"><defs><style type="text/css"></style></defs><path d="M891.123437 298.578125c0-140.6875-114.140625-254.734375-254.953125-254.734375-46.210938 0-89.5 12.351563-126.882813 33.828125-37.367188-21.476563-80.648438-33.828125-126.867187-33.828125-140.8125 0-254.984375 114.046875-254.984375 254.734375 0 81.617188 38.464063 154.226563 98.229688 200.84375C96.573438 557.404687 5.6875 685.014063 0.846875 834.4125c-0.78125 3.203125-0.84375 13.890625-0.84375 13.890625 0 23.351563 18.925 42.257813 42.292188 42.257813 23.346875 0 42.292188-18.90625 42.292188-42.257813l0.784375-1.359375c0.359375-154.992188 119.648438-282 271.534375-294.914063l0 0c8.398438 0.835938 16.90625 1.265625 25.51875 1.265625 8.609375 0 17.117188-0.429688 25.507813-1.265625l0.007813 0c62.203125 5.289063 118.890625 29.765625 164.195313 67.429688 1.289063-2.382813 2.914063-4.625 4.90625-6.632813 15.664063-15.859375 28.789063-33.085938 48.09375-45 3.65625-2.257813 7.664063-3.5 11.742188-3.882813-4.148438-3.742188-8.351563-7.429688-12.679688-10.984375 3.976563 0.179688 29.867187-0.179688 37.476563-0.929688 15.617187-1.554688 30.8125-4.539063 45.460938-8.773438l0.03125 0.023438c34.1875 14.828125 71.085938 35.765625 104.953125 63.265625 6.484375-11.992188 15.65625-22.578125 26.335938-30.929688 12-9.390625 25.429687-17.648438 40.101563-22.101563-25.992188-21.53125-54.875-39.703125-86.03125-53.773438C852.50625 453.13125 891.123437 380.373437 891.123437 298.578125zM381.810938 473.271875c-96.4375 0-174.604688-78.164063-174.604688-174.59375s78.171875-174.59375 174.604688-174.59375c96.421875 0 174.585938 78.164063 174.585938 174.59375S478.232813 473.271875 381.810938 473.271875zM715.1625 447.5375c-2.773438 1.132813-5.4375 2.476563-7.984375 4-16.523438 7.71875-34.484375 12.867188-53.390625 14.90625l-16.734375 0.960938c-0.53125 0.007813-1.078125 0.039063-1.625 0.039063-19.101563 0-37.460938-3.164063-54.585938-8.984375 35.335938-43.71875 56.539063-99.3125 56.539063-159.875 0-60.984375-21.460938-116.9375-57.226563-160.789063 17.320313-5.96875 35.914063-9.242188 55.273438-9.242188 93.664063 0 169.601563 75.859375 169.601563 169.453125C805.029688 362.7875 768.623438 419.029687 715.1625 447.5375zM816.053125 821.639063l19.835938 19.335938-12.726563 12.726563c0 0-9.304688 9.789063 2.8125 22.265625l99.726563 99.132813c0 0 9.546875 8.554688 20.070313 1.21875l49.9375-48.460938c0 0 8.796875-11.75-2.945313-22.515625l-98.875-97.898438c0 0-10.773438-10.523438-22.765625-1.46875l-12.96875 13.21875-20.796875-20.554688L816.053125 821.639063zM802.357813 764.615625l-106.960938-105.492188 0-32.546875-63.140625-37.445313-31.242188 30.351563 38.101563 60.695313 33.515625 0.242188 105.5 103.773438L802.357813 764.615625zM629.810938 942.051563c0 0 0-16.148438 16.875-16.148438 0 0 15.195313 0.492188 15.671875 16.148438 0 0-0.476563 14.6875-16.273438 15.671875l-14.078125 13.945313c0 0 20.554688 19.085938 43.8125 0l190.664063-204.359375c0 0 20.796875 13.9375 52.125 13.703125 0 0 38.257813 1.46875 68.28125-24.632813 0 0 58.570313-45.9375 28.546875-117.8125l-68.195313 65.914063-57.765625-57.09375 68.203125-65.265625c0 0-43.398438-25.460938-102.132812 11.414063 0 0-30.34375 21.210938-39.492188 59.398438 0 0-13.695313 45.359375 16.96875 86.148438L618.639062 914.965625c0 0-13.390625 13.0625-6.851563 32.304688L629.810938 942.051563zM629.810938 942.051563c0 0 1.296875 15.34375 16.273438 15.671875l-14.070313 13.945313c0 0-18.507813-15.898438-20.226563-24.398438L629.810938 942.051563z" p-id="15776"></path></svg>