<?xml version="1.0" standalone="no"?><!DOCTYPE svg PUBLIC "-//W3C//DTD SVG 1.1//EN" "http://www.w3.org/Graphics/SVG/1.1/DTD/svg11.dtd"><svg t="1545388578218" class="icon" style="" viewBox="0 0 1024 1024" version="1.1" xmlns="http://www.w3.org/2000/svg" p-id="1592" xmlns:xlink="http://www.w3.org/1999/xlink" width="200" height="200"><defs><style type="text/css"></style></defs><path d="M887.232 69.504H130.56a62.976 62.976 0 0 0-62.912 62.912v757.504c0 34.624 28.224 62.784 62.912 62.784h756.672c34.688 0 62.912-28.16 62.912-62.784V132.416a62.976 62.976 0 0 0-62.912-62.912zM122.88 255.168h772.032v519.68H122.88v-519.68z m7.68-130.368h756.672a7.68 7.68 0 0 1 7.68 7.616v67.456H122.88V132.416a7.68 7.68 0 0 1 7.68-7.616z m756.672 772.672H130.56a7.68 7.68 0 0 1-7.68-7.552v-59.84h772.032v59.904a7.68 7.68 0 0 1-7.68 7.488z" p-id="1593"></path><path d="M673.28 487.168L452.032 359.488a27.712 27.712 0 0 0-41.408 23.936v255.488a27.648 27.648 0 0 0 27.584 27.648h0.064a27.072 27.072 0 0 0 13.888-3.776l221.12-127.68a27.584 27.584 0 0 0 0.192-47.808l-0.192-0.128zM465.856 591.04V431.232L604.16 511.104 465.856 591.04z" p-id="1594"></path></svg>