<?xml version="1.0" standalone="no"?><!DOCTYPE svg PUBLIC "-//W3C//DTD SVG 1.1//EN" "http://www.w3.org/Graphics/SVG/1.1/DTD/svg11.dtd"><svg t="1542623287591" class="icon" style="" viewBox="0 0 1028 1024" version="1.1" xmlns="http://www.w3.org/2000/svg" p-id="14918" xmlns:xlink="http://www.w3.org/1999/xlink" width="200.78125" height="200"><defs><style type="text/css"></style></defs><path d="M883.539823 987.752212c-4.530973 0-9.061947 0-9.061947-4.530973l-167.646018-90.619469c-158.584071 22.654867-312.637168-40.778761-380.60177-154.053097-4.530973-9.061947-4.530973-22.654867 9.061947-31.716815 9.061947-4.530973 22.654867-4.530973 31.716815 9.061947 58.902655 99.681416 199.362832 154.053097 344.353982 131.39823h13.59292l144.991151 77.026549v-135.929203c0-4.530973 4.530973-13.59292 9.061947-18.123894 49.840708-45.309735 77.026549-99.681416 77.026548-154.053098 0-58.902655-27.185841-113.274336-77.026548-158.58407-9.061947-9.061947-9.061947-22.654867-4.530974-31.716815 9.061947-9.061947 22.654867-9.061947 31.716814-4.530973 58.902655 54.371681 95.150442 117.80531 95.150443 190.300885 0 67.964602-27.185841 131.39823-81.557522 181.238938v163.115044c0 9.061947-4.530973 13.59292-9.061947 18.123894-18.123894 9.061947-22.654867 13.59292-27.185841 13.59292z" p-id="14919"></path><path d="M140.460177 856.353982c-4.530973 0-9.061947 0-13.59292-4.530973-4.530973-4.530973-9.061947-13.59292-9.061947-18.123894v-217.486726c-54.371681-63.433628-81.557522-135.929204-81.557522-212.955752 0-203.893805 194.831858-367.00885 434.973451-367.008849s434.973451 163.115044 434.973451 367.008849-194.831858 367.00885-434.973451 367.00885c-45.309735 0-86.088496-4.530973-126.867257-18.123894l-190.300885 99.681416c-4.530973 4.530973-9.061947 4.530973-13.59292 4.530973z m330.761062-774.79646c-212.955752 0-389.663717 144.99115-389.663717 321.699115 0 67.964602 27.185841 135.929204 77.026549 190.300885 4.530973 4.530973 4.530973 9.061947 4.530973 13.59292v185.769912l167.646018-86.088496c4.530973-4.530973 9.061947-4.530973 18.123894 0 40.778761 9.061947 81.557522 18.123894 122.336283 18.123894 212.955752 0 389.663717-144.99115 389.663717-321.699115s-176.707965-321.699115-389.663717-321.699115z" p-id="14920"></path></svg>