<?xml version="1.0" standalone="no"?><!DOCTYPE svg PUBLIC "-//W3C//DTD SVG 1.1//EN" "http://www.w3.org/Graphics/SVG/1.1/DTD/svg11.dtd"><svg class="icon" width="200px" height="175.49px" viewBox="0 0 1167 1024" version="1.1" xmlns="http://www.w3.org/2000/svg"><path fill="#333333" d="M0.016 74.46a2.286 2.286 1440 1 0 145.836 0 2.286 2.286 1440 1 0-145.836 0zM291.72 1.524h875.081v145.837h-875.08z m0 364.639a2.286 2.286 1440 1 0 145.837 0 2.286 2.286 1440 1 0-145.837 0z m291.705-72.934H1166.8v145.836H583.425zM291.72 949.54a2.286 2.286 1440 1 0 145.837 0 2.286 2.286 1440 1 0-145.837 0z m291.705-72.902H1166.8v145.837H583.425z m0-218.802a2.286 2.286 1440 1 0 145.836 0 2.286 2.286 1440 1 0-145.836 0z m291.704-72.902h291.672V730.77H875.13z" /></svg>