<?xml version="1.0" standalone="no"?><!DOCTYPE svg PUBLIC "-//W3C//DTD SVG 1.1//EN" "http://www.w3.org/Graphics/SVG/1.1/DTD/svg11.dtd"><svg t="1542622563711" class="icon" style="" viewBox="0 0 1024 1024" version="1.1" xmlns="http://www.w3.org/2000/svg" p-id="6046" xmlns:xlink="http://www.w3.org/1999/xlink" width="200" height="200"><defs><style type="text/css"></style></defs><path d="M874.667 284.459h-56.875V113.792A113.92 113.92 0 0 0 704 0H135.125A113.92 113.92 0 0 0 21.333 113.792v796.416A113.92 113.92 0 0 0 135.125 1024h739.542a113.92 113.92 0 0 0 113.792-113.792v-512a113.92 113.92 0 0 0-113.792-113.75zM78.208 910.208V113.792c0.043-31.403 25.515-56.875 56.917-56.917H704c31.403 0.042 56.832 25.514 56.875 56.917v853.333h-625.75a56.96 56.96 0 0 1-56.917-56.917z m853.333 0c0 31.403-25.472 56.875-56.874 56.917h-56.875V341.333h56.875c31.402 0 56.874 25.472 56.917 56.875v512zM192 349.867a14.208 14.208 0 0 1-14.208-14.251V199.083a14.208 14.208 0 0 1 26.027-7.851l64.981 97.45v-89.6a14.208 14.208 0 1 1 28.416 0v136.534a14.208 14.208 0 0 1-26.027 7.936l-64.981-97.45v89.514A14.208 14.208 0 0 1 192 349.866z m170.667 0a14.208 14.208 0 0 1-14.208-14.251V199.083a14.208 14.208 0 0 1 14.208-14.208h91.008a14.208 14.208 0 1 1 0 28.458h-76.8v39.808h76.8a14.208 14.208 0 1 1 0 28.459h-76.8v39.808h76.8a14.208 14.208 0 1 1 0 28.459h-91.008z m166.4-0.043a14.25 14.25 0 0 1-12.63-12.117l-19.925-136.534a14.25 14.25 0 0 1 12.032-16.128 14.507 14.507 0 0 1 16.128 12.032l11.605 79.616 29.142-82.346c4.053-11.307 22.741-11.307 26.837 0l29.141 82.346 11.648-79.616a14.379 14.379 0 0 1 16.128-12.032 14.25 14.25 0 0 1 12.032 16.128L641.28 337.707a14.25 14.25 0 0 1-12.715 12.117H627.2a14.25 14.25 0 0 1-13.44-9.43l-34.944-98.687-34.901 98.688a14.507 14.507 0 0 1-14.806 9.386zM647.168 512a28.459 28.459 0 0 1 0 56.875H192A28.459 28.459 0 0 1 192 512h455.125z m0 142.208a28.459 28.459 0 0 1 0 56.917H192a28.459 28.459 0 0 1 0-56.917h455.125z m0 142.25a28.459 28.459 0 0 1 0 56.875H192a28.459 28.459 0 0 1 0-56.874h455.125z" p-id="6047"></path></svg>