<?xml version="1.0" standalone="no"?><!DOCTYPE svg PUBLIC "-//W3C//DTD SVG 1.1//EN" "http://www.w3.org/Graphics/SVG/1.1/DTD/svg11.dtd"><svg t="1542622724226" class="icon" style="" viewBox="0 0 1024 1024" version="1.1" xmlns="http://www.w3.org/2000/svg" p-id="8583" xmlns:xlink="http://www.w3.org/1999/xlink" width="200" height="200"><defs><style type="text/css"></style></defs><path d="M312.3 161c-17.7 0-34.5-5.6-47.4-15.7-14.1-11.1-22.2-26.8-22.2-43.2v-39c0-32.5 31.2-58.9 69.6-58.9h399.3c17.7 0 34.5 5.6 47.4 15.7 14.1 11.1 22.2 26.8 22.2 43.2v39c0 16.4-8.1 32.1-22.2 43.2-12.8 10.1-29.7 15.7-47.4 15.7H312.3z m0-116.8c-17.4 0-29.6 10-29.6 18.9v39c0 8.9 12.2 18.9 29.6 18.9h399.3c17.4-0.1 29.6-10 29.6-18.9v-39c0-8.9-12.2-18.9-29.6-18.9H312.3z" fill="#888888" p-id="8584"></path><path d="M910.8 1024H113.2c-18.6 0-36.1-7.2-49.3-20.1-13.1-12.9-20.6-30.8-20.5-49V122.2c0-38.1 31.4-69.1 70-69.1h76.4v40h-76.4c-16.5 0-30 13.1-30 29.1v832.7c0 7.7 3 15 8.6 20.5s13.3 8.6 21.3 8.6h797.6c16.5 0 29.8-13.1 29.8-29.1V122.2c0-16.1-13.5-29.1-30-29.1h-74V53h74c38.6 0 70 31 70 69.1v832.7c-0.1 38.2-31.4 69.2-69.9 69.2z" fill="#888888" p-id="8585"></path><path d="M662.9 664.1H368.2c-8.2 0-15-6.8-15-15v-10c0-8.3 6.8-15 15-15h294.7c8.3 0 15 6.8 15 15v10c0 8.3-6.8 15-15 15zM663.9 520H369.2c-8.2 0-15-6.8-15-15v-10c0-8.2 6.8-15 15-15h294.7c8.3 0 15 6.8 15 15v10c0 8.3-6.8 15-15 15z" fill="#888888" p-id="8586"></path><path d="M496.5 821.5V502c0-8.3 6.7-15 15-15h10c8.3 0 15 6.8 15 15v319.5c0 8.3-6.8 15-15 15h-10c-8.2 0-15-6.7-15-15z" fill="#888888" p-id="8587"></path><path d="M688 345.9L536.8 490.1c-6 5.7-15.5 5.5-21.2-0.5l-6.9-7.2c-5.7-6-5.5-15.5 0.5-21.2L660.4 317c6-5.7 15.5-5.5 21.2 0.5l6.9 7.2c5.7 6 5.5 15.5-0.5 21.2z" fill="#888888" p-id="8588"></path><path d="M375.6 315.5l143 152.4c5.6 6 5.3 15.6-0.7 21.2l-7.3 6.8c-6 5.6-15.6 5.3-21.2-0.7L346.5 342.9c-5.6-6-5.3-15.6 0.7-21.2l7.3-6.8c5.9-5.7 15.5-5.4 21.1 0.6z" fill="#888888" p-id="8589"></path></svg>