<?xml version="1.0" standalone="no"?><!DOCTYPE svg PUBLIC "-//W3C//DTD SVG 1.1//EN" "http://www.w3.org/Graphics/SVG/1.1/DTD/svg11.dtd"><svg class="icon" width="200px" height="200.00px" viewBox="0 0 1024 1024" version="1.1" xmlns="http://www.w3.org/2000/svg"><path fill="#333333" d="M907 312.9H768.7v-76.6c0-52.4-42.6-95-95-95H350.3c-52.4 0-95 42.6-95 95v76.6H117c-30.3 0-55 24.7-55 55v353.3c0 30.3 24.7 55 55 55h88.4v51.4c0 30.3 24.7 55 55 55h503.2c30.3 0 55-24.7 55-55v-51.4H907c30.3 0 55-24.7 55-55V367.9c0-30.3-24.7-55-55-55z m-621.7-76.6c0-35.8 29.2-65 65-65h323.3c35.8 0 65 29.2 65 65v76.6H285.3v-76.6z m503.3 591.4c0 13.8-11.2 25-25 25H260.4c-13.8 0-25-11.2-25-25V519.5c0-13.8 11.2-25 25-25h503.2c13.8 0 25 11.2 25 25v308.2zM932 721.2c0 13.8-11.2 25-25 25h-88.4V519.5c0-30.3-24.7-55-55-55H260.4c-30.3 0-55 24.7-55 55v226.7H117c-13.8 0-25-11.2-25-25V367.9c0-13.8 11.2-25 25-25h790c13.8 0 25 11.2 25 25v353.3zM868.3 364.6h-84.7c-2.8 0-5 2.2-5 5s2.2 5 5 5h84.7c13.8 0 25 11.2 25 25v113.9c0 2.8 2.2 5 5 5s5-2.2 5-5V399.6c0-19.3-15.7-35-35-35zM460.9 193H356.8c-24.8 0-45 20.2-45 45v42.2c0 2.8 2.2 5 5 5s5-2.2 5-5V238c0-19.3 15.7-35 35-35h104.1c2.8 0 5-2.2 5-5s-2.2-5-5-5z m13.6 328.2c0-2.8-2.2-5-5-5H295.1c-19.3 0-35 15.7-35 35v79.3c0 2.8 2.2 5 5 5s5-2.2 5-5v-79.3c0-13.8 11.2-25 25-25h174.4c2.7 0 5-2.3 5-5z m289.4 193.5c-2.8 0-5 2.2-5 5V799c0 13.8-11.2 25-25 25H559.5c-2.8 0-5 2.2-5 5s2.2 5 5 5h174.4c19.3 0 35-15.7 35-35v-79.3c0-2.8-2.2-5-5-5zM235 377.7H135c-5.5 0-10 4.5-10 10s4.5 10 10 10h100c5.5 0 10-4.5 10-10s-4.5-10-10-10zM322.4 620c0 5.3 4.3 9.6 9.6 9.6h360c5.3 0 9.6-4.3 9.6-9.6s-4.3-9.6-9.6-9.6H332c-5.3 0-9.6 4.3-9.6 9.6zM701.6 746c0-5.3-4.3-9.6-9.6-9.6H332c-5.3 0-9.6 4.3-9.6 9.6s4.3 9.6 9.6 9.6h360c5.3 0 9.6-4.3 9.6-9.6z" /></svg>