<?xml version="1.0" standalone="no"?><!DOCTYPE svg PUBLIC "-//W3C//DTD SVG 1.1//EN" "http://www.w3.org/Graphics/SVG/1.1/DTD/svg11.dtd"><svg class="icon" width="200px" height="200.00px" viewBox="0 0 1024 1024" version="1.1" xmlns="http://www.w3.org/2000/svg"><path fill="#333333" d="M519 959.96c-96.2 0-189.3-30.8-267.7-89.5-95.7-71.7-157.9-176.5-174.8-294.9-17-118.5 13.2-236.4 84.9-332.2 148.1-197.8 429.4-238.1 627.1-90.1 82.9 62.1 142 151.6 166.6 252 4.2 17.2-6.3 34.5-23.5 38.7-17.2 4.1-34.5-6.3-38.7-23.5-21-86-71.7-162.8-142.8-216-169.4-126.9-410.6-92.3-537.5 77.2-61.5 82.1-87.3 183.2-72.7 284.7 14.6 101.5 67.8 191.3 149.9 252.7 169.5 127 410.7 92.4 537.6-77.1 33.2-44.4 56-94.1 67.6-147.8 3.8-17.3 20.9-28.3 38-24.5 17.3 3.7 28.3 20.8 24.5 38-13.7 62.8-40.2 120.8-79 172.7-71.7 95.7-176.5 157.9-295 174.8-21.5 3.3-43.1 4.8-64.5 4.8zM549.376 612.864H486.4v-23.552c-1.536-45.056 18.944-81.92 60.928-110.08 43.52-31.232 64.512-62.464 62.976-93.696-4.608-43.52-29.696-67.072-74.752-70.144-54.784 0-89.088 31.232-102.912 93.696l-68.096-16.384c18.944-95.232 78.848-140.288 180.224-135.68 86.016 4.608 133.632 45.056 142.848 121.856 3.072 50.176-25.6 93.696-86.528 131.072-35.84 23.552-53.248 51.712-51.712 84.48v18.432z m6.656 131.072H478.72v-74.752h77.312v74.752z" /></svg>