<?xml version="1.0" standalone="no"?><!DOCTYPE svg PUBLIC "-//W3C//DTD SVG 1.1//EN" "http://www.w3.org/Graphics/SVG/1.1/DTD/svg11.dtd"><svg t="1557744933723" class="icon" style="" viewBox="0 0 1024 1024" version="1.1" xmlns="http://www.w3.org/2000/svg" p-id="1890" xmlns:xlink="http://www.w3.org/1999/xlink" width="200" height="200"><defs><style type="text/css"></style></defs><path d="M746.338462 492.307692c-131.938462 0-238.276923 108.307692-238.276924 240.246154s106.338462 238.276923 238.276924 238.276923S984.615385 862.523077 984.615385 732.553846 878.276923 492.307692 746.338462 492.307692z m167.384615 263.876923h-173.292308v-183.138461s64.984615-3.938462 124.061539 57.107692 49.230769 126.030769 49.230769 126.030769z m-476.553846-21.661538c0-53.169231 17.723077-116.184615 45.292307-163.446154 33.476923-59.076923 70.892308-82.707692 100.43077-128 49.230769-72.861538 59.076923-179.2 27.56923-257.969231-31.507692-80.738462-106.338462-128-194.953846-126.030769-86.646154 1.969231-159.507692 55.138462-187.076923 137.846154-31.507692 88.615385-17.723077 196.923077 53.169231 263.876923 29.538462 27.569231 57.107692 70.892308 41.353846 114.215385-13.784615 39.384615-61.046154 57.107692-94.523077 72.861538-76.8 33.476923-171.323077 80.738462-187.076923 173.292308-15.753846 74.830769 35.446154 153.6 116.184616 153.6h336.738461c15.753846 0 25.6-19.692308 15.753846-31.507693-45.292308-59.076923-72.861538-131.938462-72.861538-208.738461z" p-id="1891"></path></svg>